<?xml version="1.0" encoding="utf-8"?>
<!-- Generator: Adobe Illustrator 24.3.0, SVG Export Plug-In . SVG Version: 6.00 Build 0)  -->
<svg version="1.1" id="图层_1" xmlns="http://www.w3.org/2000/svg" xmlns:xlink="http://www.w3.org/1999/xlink" x="0px" y="0px"
	 viewBox="0 0 360 80" style="enable-background:new 0 0 360 80;" xml:space="preserve">
<g>
	<path style="fill:#333333;" d="M0.77,70.71l23.28-58.42l6.72,2.67L7.49,73.38L0.77,70.71z M13.19,54.25v-7.27h32.57v7.27H13.19z
		 M27.82,17.08h-6.99V9.81H32.7l24.1,60.72l-6.72,2.67L27.82,17.08z"/>
	<path style="fill:#333333;" d="M93.88,71.82c-3.68,0-7.15-0.81-10.4-2.44c-3.25-1.63-6.09-3.86-8.53-6.72s-4.37-6.16-5.8-9.94
		c-1.43-3.77-2.14-7.83-2.14-12.19c0-4.29,0.71-8.34,2.14-12.14c1.43-3.8,3.36-7.11,5.8-9.94c2.44-2.82,5.28-5.06,8.53-6.72
		c3.25-1.66,6.72-2.48,10.4-2.48c4.23,0,8.2,1.07,11.91,3.22c3.71,2.15,6.85,5.21,9.43,9.2l-6.07,3.96
		c-1.84-2.94-4.09-5.2-6.76-6.76s-5.51-2.35-8.51-2.35c-2.7,0-5.23,0.63-7.59,1.88c-2.36,1.25-4.43,2.97-6.21,5.14
		c-1.78,2.17-3.19,4.71-4.23,7.62c-1.04,2.91-1.56,6.01-1.56,9.32c0,3.31,0.52,6.41,1.56,9.32c1.04,2.91,2.45,5.46,4.23,7.67
		c1.78,2.2,3.85,3.93,6.21,5.19c2.36,1.25,4.89,1.88,7.59,1.88c3,0,5.84-0.8,8.51-2.39s4.92-3.86,6.76-6.81l6.07,3.96
		c-2.58,3.99-5.72,7.08-9.43,9.25C102.08,70.73,98.11,71.82,93.88,71.82z"/>
	<path style="fill:#333333;" d="M152.81,71.82c-3.69,0-7.16-0.81-10.42-2.44c-3.26-1.63-6.1-3.86-8.53-6.72
		c-2.43-2.85-4.35-6.16-5.76-9.94c-1.41-3.77-2.12-7.83-2.12-12.19c0-4.29,0.71-8.34,2.12-12.14c1.41-3.8,3.33-7.11,5.76-9.94
		c2.43-2.82,5.27-5.06,8.53-6.72c3.26-1.66,6.73-2.48,10.42-2.48c4.3,0,8.31,1.07,12.03,3.22c3.72,2.15,6.87,5.21,9.45,9.2
		l-6.16,3.96c-1.9-2.94-4.17-5.2-6.81-6.76c-2.64-1.56-5.49-2.35-8.56-2.35c-2.7,0-5.23,0.63-7.59,1.88
		c-2.36,1.25-4.43,2.97-6.21,5.14c-1.78,2.17-3.17,4.71-4.19,7.62s-1.52,6.01-1.52,9.32c0,3.31,0.51,6.41,1.52,9.32
		s2.41,5.46,4.19,7.67c1.78,2.2,3.85,3.93,6.21,5.19c2.36,1.25,4.89,1.88,7.59,1.88c2.88,0,5.6-0.72,8.14-2.15
		c2.54-1.43,4.77-3.47,6.67-6.09V44.12h-20.24v-7.27h27.51v21.59l-0.55,0.92c-2.58,4-5.73,7.07-9.45,9.22
		C161.12,70.74,157.11,71.82,152.81,71.82z"/>
	<path style="fill:#333333;" d="M267.57,75.41h-81.79v-7.27h6.81V50.84h61.64v-0.74h7.27v18.03h6.07V75.41z M187.35,25.54
		c1.66-2.33,3.04-4.45,4.14-6.35c1.1-1.9,2.25-4.05,3.45-6.44c1.2-2.39,2.22-4.81,3.08-7.27l6.81,2.3c-0.92,2.76-2.02,5.43-3.31,8
		c-1.29,2.58-2.53,4.88-3.73,6.9c-1.2,2.02-2.24,3.68-3.13,4.97c-0.89,1.29-1.37,1.99-1.43,2.12l-2.94-2.12L187.35,25.54z
		 M255.43,39.16c0,2.27-0.8,4.22-2.39,5.84c-1.59,1.63-3.55,2.44-5.88,2.44h-47.95V28.95h48.94V27.2h7.27V39.16z M199.86,68.14
		h12.88V58.11h-12.88V68.14z M202.9,25.45v-7.27h48.85v7.27H202.9z M206.3,40.17h40.76c0.74,0,1.1-0.34,1.1-1.01v-2.94H206.3V40.17z
		 M261.04,28.49l-7.27-15.36h-45.91V5.85h50.51l9.2,19.6L261.04,28.49z M233.81,58.11h-13.8v10.03h13.8V58.11z M254.23,58.11h-13.16
		v10.03h13.16V58.11z"/>
	<path style="fill:#333333;" d="M324.61,39.07h34.87v7.27h-34.87v20.98c0,2.33-0.81,4.29-2.44,5.89c-1.62,1.59-3.57,2.39-5.84,2.39
		H302.9v-7.27h13.43c0.67,0,1.01-0.34,1.01-1.01V46.33h-38.73v-7.27h38.73v-8.25l23.74-17.33h-54.1V6.22h65.87v7.52l-28.24,20.73
		V39.07z"/>
</g>
<g>
</g>
<g>
</g>
<g>
</g>
<g>
</g>
<g>
</g>
<g>
</g>
<g>
</g>
<g>
</g>
<g>
</g>
<g>
</g>
<g>
</g>
<g>
</g>
<g>
</g>
<g>
</g>
<g>
</g>
</svg>
